:FULLY-SPECIFIED
:FORCE-ALL-JOINTS-BE-3DOF
:DEGREES
849
root 3.53796 16.5978 27.6306 -10.0641 8.31275 357.414
lfemur -17.9276 2.22906 -12.413
ltibia 27.1717 0 0
lfoot -4.11343 -17.031 0
ltoes 23.592 0 0
rfemur -42.4842 3.00945 10.0712
rtibia 46.2907 0 0
rfoot 0.403878 -1.43 0
rtoes -12.4379 0 0
lowerback 9.8759 1.07694 -1.35151
upperback 3.21849 1.01635 -0.52011
thorax -1.76335 0.518461 0.558187
lowerneck -6.09896 -2.39454 3.12376
upperneck 6.40052 -3.70368 2.37398
head 3.12854 -1.65976 0.054868
lclavicle 1.53208e-014 -1.60289e-014 0
lhumerus -40.091 -15.696 81.0292
lradius 53.3317 0 0
lwrist 22.3874 0 0
lhand 2.18683 4.11723 0
lfingers 7.12502 0 0
lthumb 27.7148 32.3505 0
rclavicle 1.53208e-014 -1.60289e-014 0
rhumerus -44.4247 11.8316 -65.4342
rradius 51.0754 0 0
rwrist 0.435006 0 0
rhand -12.7977 -29.3845 0
rfingers 7.12502 0 0
rthumb 13.3012 -779.082 0
850
root 3.58548 16.5982 27.7687 -10.6717 9.29788 357.547
lfemur -17.3212 2.47754 -13.1262
ltibia 27.7967 0 0
lfoot -4.09968 -18.1705 0
ltoes 23.6538 0 0
rfemur -44.38 2.67704 9.58677
rtibia 47.6042 0 0
rfoot 1.23859 -1.18553 0
rtoes -11.7152 0 0
lowerback 10.2364 0.833432 -1.66427
upperback 3.34047 0.676935 -0.566983
thorax -1.86169 0.348913 0.688049
lowerneck -6.12618 -2.47264 3.07502
upperneck 6.59613 -3.81471 2.44176
head 3.20197 -1.70937 0.0786812
lclavicle 1.5879e-014 -1.65241e-014 0
lhumerus -39.6383 -16.1639 80.8072
lradius 53.5089 0 0
lwrist 22.4922 0 0
lhand 2.51487 4.05046 0
lfingers 7.12502 0 0
lthumb 28.028 32.2285 0
rclavicle 1.5879e-014 -1.65241e-014 0
rhumerus -44.9944 10.6185 -63.9831
rradius 50.7613 0 0
rwrist 0.567201 0 0
rhand -13.0372 -29.568 0
rfingers 7.12502 0 0
rthumb 13.0703 -779.281 0
851
root 3.63145 16.5984 27.9047 -11.2541 10.2622 357.678
lfemur -16.74 2.73335 -13.8193
ltibia 28.4167 0 0
lfoot -4.09432 -19.2613 0
ltoes 23.7046 0 0
rfemur -46.2038 2.34482 9.1112
rtibia 48.8965 0 0
rfoot 2.04879 -0.963458 0
rtoes -10.9835 0 0
lowerback 10.5811 0.595783 -1.96827
upperback 3.45662 0.34598 -0.613522
thorax -1.95677 0.183599 0.81313
lowerneck -6.15307 -2.55106 3.02455
upperneck 6.78392 -3.9257 2.50913
head 3.27287 -1.75918 0.102696
lclavicle 1.64173e-014 -1.69864e-014 0
lhumerus -39.2081 -16.6309 80.6112
lradius 53.6858 0 0
lwrist 22.5873 0 0
lhand 2.8494 3.99366 0
lfingers 7.12502 0 0
lthumb 28.347 32.1124 0
rclavicle 1.64173e-014 -1.69864e-014 0
rhumerus -45.5456 9.44627 -62.5985
rradius 50.4985 0 0
rwrist 0.689331 0 0
rhand -13.2526 -29.7298 0
rfingers 7.12502 0 0
rthumb 12.8626 -779.455 0
852
root 3.67574 16.5985 28.0383 -11.8083 11.2003 357.806
lfemur -16.1865 2.99618 -14.4894
ltibia 29.0294 0 0
lfoot -4.09745 -20.299 0
ltoes 23.744 0 0
rfemur -47.9475 2.01424 8.64572
rtibia 50.1631 0 0
rfoot 2.8316 -0.764934 0
rtoes -10.2433 0 0
lowerback 10.9085 0.364799 -2.26227
upperback 3.5664 0.0246159 -0.659512
thorax -2.04818 0.0230843 0.932951
lowerneck -6.17959 -2.62955 2.97246
upperneck 6.96321 -4.03629 2.57584
head 3.341 -1.80902 0.126836
lclavicle 1.69336e-014 -1.74129e-014 0
lhumerus -38.8022 -17.0959 80.4433
lradius 53.8617 0 0
lwrist 22.672 0 0
lhand 3.19091 3.94793 0
lfingers 7.12502 0 0
lthumb 28.6723 32.003 0
rclavicle 1.69336e-014 -1.74129e-014 0
rhumerus -46.0764 8.31903 -61.2866
rradius 50.2904 0 0
rwrist 0.800259 0 0
rhand -13.4412 -29.868 0
rfingers 7.12502 0 0
rthumb 12.6805 -779.603 0
853
root 3.71819 16.5984 28.1696 -12.331 12.1066 357.931
lfemur -15.6632 3.26572 -15.1335
ltibia 29.6324 0 0
lfoot -4.10917 -21.2787 0
ltoes 23.7712 0 0
rfemur -49.603 1.68673 8.19159
rtibia 51.3998 0 0
rfoot 3.58415 -0.59113 0
rtoes -9.4949 0 0
lowerback 11.2171 0.141278 -2.54504
upperback 3.66928 -0.286025 -0.704739
thorax -2.13551 -0.132067 1.04703
lowerneck -6.20568 -2.70784 2.91881
upperneck 7.13331 -4.14611 2.64164
head 3.4061 -1.85872 0.151023
lclavicle 1.74256e-014 -1.78008e-014 0
lhumerus -38.4229 -17.5582 80.3052
lradius 54.0355 0 0
lwrist 22.7457 0 0
lhand 3.53989 3.91439 0
lfingers 7.12502 0 0
lthumb 29.0043 31.9013 0
rclavicle 1.74256e-014 -1.78008e-014 0
rhumerus -46.5848 7.2411 -60.0537
rradius 50.1405 0 0
rwrist 0.898846 0 0
rhand -13.6007 -29.9812 0
rfingers 7.12502 0 0
rthumb 12.5264 -779.722 0
854
root 3.75865 16.5981 28.2982 -12.8192 12.9757 358.052
lfemur -15.1726 3.54166 -15.7488
ltibia 30.2236 0 0
lfoot -4.12958 -22.1959 0
ltoes 23.7856 0 0
rfemur -51.1621 1.36373 7.75008
rtibia 52.6022 0 0
rfoot 4.30355 -0.44321 0
rtoes -8.73881 0 0
lowerback 11.5052 -0.0739777 -2.81533
upperback 3.76472 -0.584812 -0.748989
thorax -2.21835 -0.281288 1.15489
lowerneck -6.23127 -2.78568 2.86371
upperneck 7.29353 -4.25478 2.70629
head 3.46794 -1.90814 0.175183
lclavicle 1.78911e-014 -1.81473e-014 0
lhumerus -38.072 -18.0167 80.199
lradius 54.2064 0 0
lwrist 22.8078 0 0
lhand 3.8968 3.89415 0
lfingers 7.12502 0 0
lthumb 29.3434 31.8081 0
rclavicle 1.78911e-014 -1.81473e-014 0
rhumerus -47.0686 6.21673 -58.9059
rradius 50.0522 0 0
rwrist 0.983953 0 0
rhand -13.7284 -30.0676 0
rfingers 7.12502 0 0
rthumb 12.4027 -779.81 0
855
root 3.79697 16.5976 28.4241 -13.2697 13.8021 358.171
lfemur -14.7172 3.82369 -16.3322
ltibia 30.8006 0 0
lfoot -4.15877 -23.046 0
ltoes 23.7865 0 0
rfemur -52.6166 1.04669 7.32245
rtibia 53.766 0 0
rfoot 4.98693 -0.322343 0
rtoes -7.97549 0 0
lowerback 11.7712 -0.280169 -3.07192
upperback 3.85217 -0.870615 -0.792046
thorax -2.29627 -0.424016 1.25605
lowerneck -6.25633 -2.86281 2.80724
upperneck 7.44318 -4.36193 2.76953
head 3.52627 -1.95709 0.199238
lclavicle 1.83277e-014 -1.84494e-014 0
lhumerus -37.7518 -18.4706 80.1264
lradius 54.3735 0 0
lwrist 22.8576 0 0
lhand 4.26215 3.8883 0
lfingers 7.12502 0 0
lthumb 29.6902 31.7243 0
rclavicle 1.83277e-014 -1.84494e-014 0
rhumerus -47.5259 5.25019 -57.8496
rradius 50.0288 0 0
rwrist 1.05444 0 0
rhand -13.8218 -30.1257 0
rfingers 7.12502 0 0
rthumb 12.3119 -779.865 0
856
root 3.83301 16.5969 28.547 -13.6794 14.5804 358.288
lfemur -14.2993 4.11151 -16.881
ltibia 31.361 0 0
lfoot -4.19684 -23.8243 0
ltoes 23.7731 0 0
rfemur -53.9585 0.737038 6.90998
rtibia 54.887 0 0
rfoot 5.63142 -0.229694 0
rtoes -7.20538 0 0
lowerback 12.0136 -0.476495 -3.31356
upperback 3.93111 -1.1423 -0.833697
thorax -2.36888 -0.559683 1.35002
lowerneck -6.28078 -2.93897 2.74948
upperneck 7.58158 -4.46719 2.83113
head 3.58083 -2.00543 0.223111
lclavicle 1.87332e-014 -1.87043e-014 0
lhumerus -37.4641 -18.919 80.0894
lradius 54.536 0 0
lwrist 22.8946 0 0
lhand 4.63641 3.89797 0
lfingers 7.12502 0 0
lthumb 30.045 31.6509 0
rclavicle 1.87332e-014 -1.87043e-014 0
rhumerus -47.9546 4.34576 -56.891
rradius 50.0739 0 0
rwrist 1.10917 0 0
rhand -13.8785 -30.1537 0
rfingers 7.12502 0 0
rthumb 12.2563 -779.887 0
857
root 3.86662 16.5961 28.6669 -14.0452 15.305 358.401
lfemur -13.9214 4.4048 -17.3921
ltibia 31.9027 0 0
lfoot -4.2439 -24.5262 0
ltoes 23.7449 0 0
rfemur -55.1797 0.436219 6.51392
rtibia 55.9607 0 0
rfoot 6.23412 -0.166429 0
rtoes -6.42893 0 0
lowerback 12.2308 -0.662155 -3.53902
upperback 4.00099 -1.39875 -0.873726
thorax -2.43575 -0.687726 1.43634
lowerneck -6.30458 -3.01389 2.69053
upperneck 7.70804 -4.57017 2.89082
head 3.63139 -2.05298 0.246726
lclavicle 1.91054e-014 -1.89092e-014 0
lhumerus -37.211 -19.361 80.0898
lradius 54.693 0 0
lwrist 22.9182 0 0
lhand 5.02006 3.92426 0
lfingers 7.12502 0 0
lthumb 30.4082 31.5885 0
rclavicle 1.91054e-014 -1.89092e-014 0
rhumerus -48.3527 3.5077 -56.0364
rradius 50.1908 0 0
rwrist 1.14701 0 0
rhand -13.8959 -30.1501 0
rfingers 7.12502 0 0
rthumb 12.2385 -779.872 0
858
root 3.89764 16.595 28.7835 -14.364 15.9704 358.512
lfemur -13.586 4.70325 -17.8627
ltibia 32.4233 0 0
lfoot -4.30004 -25.147 0
ltoes 23.7011 0 0
rfemur -56.272 0.145674 6.13554
rtibia 56.9828 0 0
rfoot 6.79218 -0.133716 0
rtoes -5.64657 0 0
lowerback 12.4212 -0.836349 -3.74706
upperback 4.06128 -1.63881 -0.911919
thorax -2.49648 -0.807579 1.51451
lowerneck -6.32767 -3.08733 2.63048
upperneck 7.82187 -4.67052 2.94838
head 3.67769 -2.09958 0.270007
lclavicle 1.94421e-014 -1.90613e-014 0
lhumerus -36.9946 -19.7956 80.1296
lradius 54.8435 0 0
lwrist 22.9276 0 0
lhand 5.41359 3.96827 0
lfingers 7.12502 0 0
lthumb 30.7804 31.5383 0
rclavicle 1.94421e-014 -1.90613e-014 0
rhumerus -48.718 2.74028 -55.292
rradius 50.3829 0 0
rwrist 1.16682 0 0
rhand -13.8714 -30.1132 0
rfingers 7.12502 0 0
rthumb 12.2607 -779.819 0
859
root 3.92594 16.5937 28.8966 -14.6325 16.5713 358.62
lfemur -13.2956 5.00655 -18.2899
ltibia 32.9205 0 0
lfoot -4.36536 -25.6822 0
ltoes 23.6411 0 0
rfemur -57.2273 -0.133158 5.77612
rtibia 57.9491 0 0
rfoot 7.30269 -0.13272 0
rtoes -4.85877 0 0
lowerback 12.5832 -0.998277 -3.93644
upperback 4.11143 -1.86137 -0.948061
thorax -2.55064 -0.918678 1.58406
lowerneck -6.35 -3.15901 2.5694
upperneck 7.92238 -4.76784 3.00354
head 3.7195 -2.14507 0.292876
lclavicle 1.97409e-014 -1.91575e-014 0
lhumerus -36.8169 -20.2221 80.2107
lradius 54.9867 0 0
lwrist 22.9222 0 0
lhand 5.81748 4.03112 0
lfingers 7.12502 0 0
lthumb 31.162 31.501 0
rclavicle 1.97409e-014 -1.91575e-014 0
rhumerus -49.0486 2.04775 -54.664
rradius 50.6536 0 0
rwrist 1.16745 0 0
rhand -13.8027 -30.0413 0
rfingers 7.12502 0 0
rthumb 12.3255 -779.726 0
860
root 3.95135 16.5922 29.0062 -14.8478 17.102 358.726
lfemur -13.0526 5.31441 -18.6706
ltibia 33.3921 0 0
lfoot -4.43996 -26.127 0
ltoes 23.5643 0 0
rfemur -58.0374 -0.398836 5.43691
rtibia 58.8552 0 0
rfoot 7.7628 -0.164608 0
rtoes -4.06596 0 0
lowerback 12.7152 -1.14714 -4.10593
upperback 4.15092 -2.0653 -0.981939
thorax -2.59783 -1.02046 1.64451
lowerneck -6.37151 -3.22869 2.5074
upperneck 8.0089 -4.86178 3.05607
head 3.75655 -2.18928 0.315258
lclavicle 1.99997e-014 -1.91952e-014 0
lhumerus -36.6799 -20.6395 80.3349
lradius 55.1218 0 0
lwrist 22.9016 0 0
lhand 6.23222 4.11391 0
lfingers 7.12502 0 0
lthumb 31.5533 31.4774 0
rclavicle 1.99997e-014 -1.91952e-014 0
rhumerus -49.3424 1.4344 -54.1586
rradius 51.0064 0 0
rwrist 1.14777 0 0
rhand -13.687 -29.9329 0
rfingers 7.12502 0 0
rthumb 12.4351 -779.591 0
861
root 3.97373 16.5905 29.1121 -15.0066 17.5572 358.829
lfemur -12.8594 5.62649 -19.0022
ltibia 33.8356 0 0
lfoot -4.52393 -26.477 0
ltoes 23.4699 0 0
rfemur -58.6943 -0.649921 5.11919
rtibia 59.6967 0 0
rfoot 8.16962 -0.230547 0
rtoes -3.26861 0 0
lowerback 12.8157 -1.28213 -4.25428
upperback 4.1792 -2.24945 -1.01334
thorax -2.63764 -1.11235 1.69538
lowerneck -6.39214 -3.2961 2.44455
upperneck 8.08072 -4.95195 3.10572
head 3.78862 -2.23206 0.337075
lclavicle 2.02161e-014 -1.91714e-014 0
lhumerus -36.5858 -21.0468 80.5041
lradius 55.2478 0 0
lwrist 22.8649 0 0
lhand 6.65828 4.21775 0
lfingers 7.12502 0 0
lthumb 31.9549 31.4686 0
rclavicle 2.02161e-014 -1.91714e-014 0
rhumerus -49.5974 0.904486 -53.7823
rradius 51.4447 0 0
rwrist 1.10664 0 0
rhand -13.5221 -29.7862 0
rfingers 7.12502 0 0
rthumb 12.5922 -779.412 0
862
root 3.99294 16.5885 29.214 -15.1059 17.9314 358.929
lfemur -12.7186 5.94251 -19.2815
ltibia 34.2489 0 0
lfoot -4.61738 -26.7273 0
ltoes 23.3572 0 0
rfemur -59.1898 -0.884971 4.82422
rtibia 60.4694 0 0
rfoot 8.52027 -0.331702 0
rtoes -2.46714 0 0
lowerback 12.8831 -1.40246 -4.38027
upperback 4.19574 -2.41271 -1.04204
thorax -2.66964 -1.19379 1.73619
lowerneck -6.41184 -3.36098 2.38095
upperneck 8.13717 -5.03799 3.15223
head 3.81544 -2.27323 0.358251
lclavicle 2.03879e-014 -1.90833e-014 0
lhumerus -36.5364 -21.4433 80.7202
lradius 55.3638 0 0
lwrist 22.8117 0 0
lhand 7.09616 4.34375 0
lfingers 7.12502 0 0
lthumb 32.3672 31.4754 0
rclavicle 2.03879e-014 -1.90833e-014 0
rhumerus -49.8115 0.462276 -53.5411
rradius 51.9718 0 0
rwrist 1.04293 0 0
rhand -13.3052 -29.5997 0
rfingers 7.12502 0 0
rthumb 12.799 -779.187 0
